<?xml version="1.0" encoding="utf-8"?>
<!-- Generator: Adobe Illustrator 27.1.0, SVG Export Plug-In . SVG Version: 6.00 Build 0)  -->
<svg width="90" version="1.1" id="Layer_1" xmlns="http://www.w3.org/2000/svg" xmlns:xlink="http://www.w3.org/1999/xlink" x="0px" y="0px"
	 viewBox="0 0 64 64" style="enable-background:new 0 0 64 64;" xml:space="preserve">
<style type="text/css">
	.st0{fill:#17B198;}
	.st1{fill:#059BBF;}
	.st2{fill:#DF2C2C;}
	.st3{fill:#6FDAF1;}
	.st4{fill:#FFFFFF;}
	.st5{fill:#F37A10;}
	.st6{fill:#FBE158;}
</style>
<g id="Multicolor_1_">
	<g>
		<ellipse class="st0" cx="32.5" cy="20" rx="19.7" ry="20"/>
		<ellipse class="st1" cx="19.7" cy="44" rx="19.7" ry="20"/>
		<ellipse class="st2" cx="44.3" cy="44" rx="19.7" ry="20"/>
		<path class="st3" d="M32,28.4c-3.2,2.6-5.5,6.1-6.7,10.2C19.5,36.3,15,31.3,13.4,25c2-0.7,4.1-1,6.3-1C24.3,24,28.6,25.6,32,28.4z
			"/>
		<path class="st4" d="M38.8,39c-2,0.7-4.1,1-6.3,1c-2.5,0-4.9-0.5-7.2-1.4c1.1-4.1,3.5-7.7,6.7-10.2C35.3,31,37.7,34.7,38.8,39z"/>
		<path class="st5" d="M39.4,44c0,6.3-2.9,11.9-7.4,15.6c-4.5-3.7-7.4-9.3-7.4-15.6c0-1.9,0.2-3.7,0.7-5.4c2.2,0.9,4.6,1.4,7.2,1.4
			c2.2,0,4.3-0.4,6.3-1C39.2,40.6,39.4,42.3,39.4,44z"/>
		<path class="st6" d="M51.5,25.4c-1.8,6.4-6.5,11.5-12.7,13.6c-1.1-4.2-3.5-7.9-6.8-10.6c3.4-2.8,7.7-4.4,12.3-4.4
			C46.8,24,49.2,24.5,51.5,25.4z"/>
	</g>
</g>
</svg>
