<?xml version="1.0" ?><!DOCTYPE svg  PUBLIC '-//W3C//DTD SVG 1.0//EN'  'http://www.w3.org/TR/2001/REC-SVG-20010904/DTD/svg10.dtd'><svg height="110px" style="enable-background:new 0 0 110 110;" version="1.0" viewBox="0 0 110 110" width="110px" xml:space="preserve" xmlns="http://www.w3.org/2000/svg" xmlns:xlink="http://www.w3.org/1999/xlink"><g id="Multicolor_1_"><g><ellipse cx="55.492" cy="43" rx="19.692" ry="20" style="fill:#17B198;"/><ellipse cx="42.692" cy="67" rx="19.692" ry="20" style="fill:#059BBF;"/><ellipse cx="67.308" cy="67" rx="19.692" ry="20" style="fill:#DF2C2C;"/><path d="M55,51.4c-3.18,2.57-5.543,6.14-6.666,10.23c-5.839-2.3-10.309-7.36-11.904-13.59    c1.969-0.68,4.076-1.04,6.262-1.04C47.35,47,51.633,48.64,55,51.4z" style="fill:#6FDAF1;"/><path d="M61.754,61.96C59.785,62.64,57.678,63,55.492,63c-2.521,0-4.943-0.48-7.158-1.37    C49.457,57.54,51.82,53.97,55,51.4C58.269,54.04,60.671,57.73,61.754,61.96z" style="fill:#FFFFFF;"/><path d="M62.385,67c0,6.32-2.875,11.95-7.385,15.6c-4.51-3.65-7.385-9.28-7.385-15.6    c0-1.86,0.246-3.66,0.719-5.37C50.55,62.52,52.972,63,55.492,63c2.186,0,4.293-0.36,6.262-1.04    C62.168,63.57,62.385,65.26,62.385,67z" style="fill:#F37A10;"/><path d="M74.466,48.37c-1.753,6.4-6.548,11.5-12.711,13.59C60.671,57.73,58.269,54.04,55,51.4    c3.367-2.76,7.65-4.4,12.308-4.4C69.828,47,72.25,47.48,74.466,48.37z" style="fill:#FBE158;"/></g></g></svg>